<mxfile host="app.diagrams.net" agent="Mozilla/5.0 (Windows NT 10.0; Win64; x64) AppleWebKit/537.36 (KHTML, like Gecko) Chrome/136.0.0.0 Safari/537.36" version="27.0.9" pages="4">
  <diagram id="CXdzvPB2wVIydzKd_ate" name="Page-1">
    <mxGraphModel dx="880" dy="494" grid="1" gridSize="10" guides="1" tooltips="1" connect="1" arrows="1" fold="1" page="1" pageScale="1" pageWidth="1200" pageHeight="1600" math="0" shadow="0">
      <root>
        <mxCell id="0" />
        <mxCell id="1" parent="0" />
        <mxCell id="1bnJfe9PC9trtTizRwwh-1" value="plato" style="rounded=0;whiteSpace=wrap;html=1;" parent="1" vertex="1">
          <mxGeometry x="30" y="80" width="110" height="40" as="geometry" />
        </mxCell>
        <mxCell id="1bnJfe9PC9trtTizRwwh-3" value="nombre" style="ellipse;whiteSpace=wrap;html=1;" parent="1" vertex="1">
          <mxGeometry x="40" y="140" width="90" height="50" as="geometry" />
        </mxCell>
        <mxCell id="1bnJfe9PC9trtTizRwwh-4" value="descripción" style="ellipse;whiteSpace=wrap;html=1;" parent="1" vertex="1">
          <mxGeometry x="40" y="200" width="90" height="50" as="geometry" />
        </mxCell>
        <mxCell id="1bnJfe9PC9trtTizRwwh-5" value="precio" style="ellipse;whiteSpace=wrap;html=1;" parent="1" vertex="1">
          <mxGeometry x="40" y="260" width="90" height="50" as="geometry" />
        </mxCell>
        <mxCell id="1bnJfe9PC9trtTizRwwh-6" value="TACC" style="ellipse;whiteSpace=wrap;html=1;" parent="1" vertex="1">
          <mxGeometry x="40" y="320" width="90" height="50" as="geometry" />
        </mxCell>
        <mxCell id="1bnJfe9PC9trtTizRwwh-7" value="calorías" style="ellipse;whiteSpace=wrap;html=1;" parent="1" vertex="1">
          <mxGeometry x="40" y="380" width="90" height="50" as="geometry" />
        </mxCell>
        <mxCell id="1bnJfe9PC9trtTizRwwh-9" value="cliente" style="rounded=0;whiteSpace=wrap;html=1;" parent="1" vertex="1">
          <mxGeometry x="200" y="80" width="110" height="40" as="geometry" />
        </mxCell>
        <mxCell id="1bnJfe9PC9trtTizRwwh-10" value="bebida" style="rounded=0;whiteSpace=wrap;html=1;" parent="1" vertex="1">
          <mxGeometry x="370" y="80" width="110" height="40" as="geometry" />
        </mxCell>
        <mxCell id="1bnJfe9PC9trtTizRwwh-11" value="categoría (ISA)" style="ellipse;whiteSpace=wrap;html=1;" parent="1" vertex="1">
          <mxGeometry x="40" y="440" width="90" height="50" as="geometry" />
        </mxCell>
        <mxCell id="1bnJfe9PC9trtTizRwwh-13" value="menú sug" style="rounded=0;whiteSpace=wrap;html=1;" parent="1" vertex="1">
          <mxGeometry x="520" y="80" width="110" height="40" as="geometry" />
        </mxCell>
        <mxCell id="1bnJfe9PC9trtTizRwwh-14" value="recetas" style="rounded=0;whiteSpace=wrap;html=1;" parent="1" vertex="1">
          <mxGeometry x="670" y="80" width="110" height="40" as="geometry" />
        </mxCell>
        <mxCell id="1bnJfe9PC9trtTizRwwh-15" value="ingredientes" style="ellipse;whiteSpace=wrap;html=1;" parent="1" vertex="1">
          <mxGeometry x="680" y="130" width="90" height="50" as="geometry" />
        </mxCell>
        <mxCell id="1bnJfe9PC9trtTizRwwh-16" value="cantidad" style="ellipse;whiteSpace=wrap;html=1;" parent="1" vertex="1">
          <mxGeometry x="680" y="190" width="90" height="50" as="geometry" />
        </mxCell>
        <mxCell id="1bnJfe9PC9trtTizRwwh-17" value="unidad de medida" style="ellipse;whiteSpace=wrap;html=1;" parent="1" vertex="1">
          <mxGeometry x="680" y="250" width="90" height="50" as="geometry" />
        </mxCell>
        <mxCell id="1bnJfe9PC9trtTizRwwh-18" value="tiempo preparación" style="ellipse;whiteSpace=wrap;html=1;" parent="1" vertex="1">
          <mxGeometry x="680" y="310" width="90" height="50" as="geometry" />
        </mxCell>
        <mxCell id="1bnJfe9PC9trtTizRwwh-19" value="indicación" style="ellipse;whiteSpace=wrap;html=1;" parent="1" vertex="1">
          <mxGeometry x="680" y="370" width="90" height="50" as="geometry" />
        </mxCell>
        <mxCell id="1bnJfe9PC9trtTizRwwh-20" value="costo" style="ellipse;whiteSpace=wrap;html=1;" parent="1" vertex="1">
          <mxGeometry x="680" y="430" width="90" height="50" as="geometry" />
        </mxCell>
        <mxCell id="1bnJfe9PC9trtTizRwwh-21" value="complejidad" style="ellipse;whiteSpace=wrap;html=1;" parent="1" vertex="1">
          <mxGeometry x="680" y="490" width="90" height="50" as="geometry" />
        </mxCell>
        <mxCell id="1bnJfe9PC9trtTizRwwh-23" value="stock" style="ellipse;whiteSpace=wrap;html=1;" parent="1" vertex="1">
          <mxGeometry x="840" y="190" width="90" height="50" as="geometry" />
        </mxCell>
        <mxCell id="1bnJfe9PC9trtTizRwwh-24" value="fecha vencimiento" style="ellipse;whiteSpace=wrap;html=1;" parent="1" vertex="1">
          <mxGeometry x="840" y="130" width="90" height="50" as="geometry" />
        </mxCell>
        <mxCell id="1bnJfe9PC9trtTizRwwh-25" value="mercaderia" style="rounded=0;whiteSpace=wrap;html=1;" parent="1" vertex="1">
          <mxGeometry x="830" y="80" width="110" height="40" as="geometry" />
        </mxCell>
        <mxCell id="1bnJfe9PC9trtTizRwwh-27" value="almacenam" style="ellipse;whiteSpace=wrap;html=1;" parent="1" vertex="1">
          <mxGeometry x="840" y="250" width="90" height="50" as="geometry" />
        </mxCell>
        <mxCell id="1bnJfe9PC9trtTizRwwh-28" value="nombre" style="ellipse;whiteSpace=wrap;html=1;" parent="1" vertex="1">
          <mxGeometry x="380" y="140" width="90" height="50" as="geometry" />
        </mxCell>
        <mxCell id="1bnJfe9PC9trtTizRwwh-29" value="marca" style="ellipse;whiteSpace=wrap;html=1;" parent="1" vertex="1">
          <mxGeometry x="380" y="200" width="90" height="50" as="geometry" />
        </mxCell>
        <mxCell id="1bnJfe9PC9trtTizRwwh-30" value="precio" style="ellipse;whiteSpace=wrap;html=1;" parent="1" vertex="1">
          <mxGeometry x="380" y="260" width="90" height="50" as="geometry" />
        </mxCell>
        <mxCell id="1bnJfe9PC9trtTizRwwh-31" value="tipo" style="ellipse;whiteSpace=wrap;html=1;" parent="1" vertex="1">
          <mxGeometry x="380" y="320" width="90" height="50" as="geometry" />
        </mxCell>
        <mxCell id="1bnJfe9PC9trtTizRwwh-32" value="precio" style="ellipse;whiteSpace=wrap;html=1;" parent="1" vertex="1">
          <mxGeometry x="530" y="140" width="90" height="50" as="geometry" />
        </mxCell>
        <mxCell id="1bnJfe9PC9trtTizRwwh-33" value="opción" style="ellipse;whiteSpace=wrap;html=1;" parent="1" vertex="1">
          <mxGeometry x="530" y="200" width="90" height="50" as="geometry" />
        </mxCell>
        <mxCell id="1bnJfe9PC9trtTizRwwh-34" value="nombre" style="ellipse;whiteSpace=wrap;html=1;" parent="1" vertex="1">
          <mxGeometry x="210" y="140" width="90" height="50" as="geometry" />
        </mxCell>
        <mxCell id="1bnJfe9PC9trtTizRwwh-36" value="DNI" style="ellipse;whiteSpace=wrap;html=1;" parent="1" vertex="1">
          <mxGeometry x="210" y="210" width="90" height="50" as="geometry" />
        </mxCell>
      </root>
    </mxGraphModel>
  </diagram>
  <diagram id="sk8-NcH3_kJpbmu6b2MK" name="Page-2">
    <mxGraphModel dx="880" dy="2094" grid="1" gridSize="10" guides="1" tooltips="1" connect="1" arrows="1" fold="1" page="1" pageScale="1" pageWidth="1200" pageHeight="1600" math="0" shadow="0">
      <root>
        <mxCell id="lREAkdYt76eSDly8mNPN-0" />
        <mxCell id="lREAkdYt76eSDly8mNPN-1" parent="lREAkdYt76eSDly8mNPN-0" />
        <mxCell id="NG0mI11uhFQM5UhzqjQ7-34" value="" style="group" parent="lREAkdYt76eSDly8mNPN-1" vertex="1" connectable="0">
          <mxGeometry x="60" y="330" width="110" height="410" as="geometry" />
        </mxCell>
        <mxCell id="NG0mI11uhFQM5UhzqjQ7-0" value="plato" style="rounded=0;whiteSpace=wrap;html=1;" parent="NG0mI11uhFQM5UhzqjQ7-34" vertex="1">
          <mxGeometry width="110" height="40" as="geometry" />
        </mxCell>
        <mxCell id="NG0mI11uhFQM5UhzqjQ7-1" value="&lt;u&gt;nombre&lt;/u&gt;" style="ellipse;whiteSpace=wrap;html=1;" parent="NG0mI11uhFQM5UhzqjQ7-34" vertex="1">
          <mxGeometry x="10" y="60" width="90" height="50" as="geometry" />
        </mxCell>
        <mxCell id="NG0mI11uhFQM5UhzqjQ7-2" value="descripción" style="ellipse;whiteSpace=wrap;html=1;" parent="NG0mI11uhFQM5UhzqjQ7-34" vertex="1">
          <mxGeometry x="10" y="120" width="90" height="50" as="geometry" />
        </mxCell>
        <mxCell id="NG0mI11uhFQM5UhzqjQ7-3" value="precio" style="ellipse;whiteSpace=wrap;html=1;" parent="NG0mI11uhFQM5UhzqjQ7-34" vertex="1">
          <mxGeometry x="10" y="180" width="90" height="50" as="geometry" />
        </mxCell>
        <mxCell id="NG0mI11uhFQM5UhzqjQ7-4" value="TACC" style="ellipse;whiteSpace=wrap;html=1;" parent="NG0mI11uhFQM5UhzqjQ7-34" vertex="1">
          <mxGeometry x="10" y="240" width="90" height="50" as="geometry" />
        </mxCell>
        <mxCell id="NG0mI11uhFQM5UhzqjQ7-5" value="calorías" style="ellipse;whiteSpace=wrap;html=1;" parent="NG0mI11uhFQM5UhzqjQ7-34" vertex="1">
          <mxGeometry x="10" y="300" width="90" height="50" as="geometry" />
        </mxCell>
        <mxCell id="NG0mI11uhFQM5UhzqjQ7-8" value="categoría (ISA)" style="ellipse;whiteSpace=wrap;html=1;" parent="NG0mI11uhFQM5UhzqjQ7-34" vertex="1">
          <mxGeometry x="10" y="360" width="90" height="50" as="geometry" />
        </mxCell>
        <mxCell id="NG0mI11uhFQM5UhzqjQ7-35" value="" style="group" parent="lREAkdYt76eSDly8mNPN-1" vertex="1" connectable="0">
          <mxGeometry x="225" y="425" width="110" height="180" as="geometry" />
        </mxCell>
        <mxCell id="NG0mI11uhFQM5UhzqjQ7-6" value="cliente" style="rounded=0;whiteSpace=wrap;html=1;" parent="NG0mI11uhFQM5UhzqjQ7-35" vertex="1">
          <mxGeometry width="110" height="40" as="geometry" />
        </mxCell>
        <mxCell id="NG0mI11uhFQM5UhzqjQ7-28" value="nombre" style="ellipse;whiteSpace=wrap;html=1;" parent="NG0mI11uhFQM5UhzqjQ7-35" vertex="1">
          <mxGeometry x="10" y="60" width="90" height="50" as="geometry" />
        </mxCell>
        <mxCell id="NG0mI11uhFQM5UhzqjQ7-29" value="&lt;u&gt;DNI&lt;/u&gt;" style="ellipse;whiteSpace=wrap;html=1;" parent="NG0mI11uhFQM5UhzqjQ7-35" vertex="1">
          <mxGeometry x="10" y="130" width="90" height="50" as="geometry" />
        </mxCell>
        <mxCell id="NG0mI11uhFQM5UhzqjQ7-36" value="" style="group" parent="lREAkdYt76eSDly8mNPN-1" vertex="1" connectable="0">
          <mxGeometry x="400" y="330" width="110" height="290" as="geometry" />
        </mxCell>
        <mxCell id="NG0mI11uhFQM5UhzqjQ7-7" value="bebida" style="rounded=0;whiteSpace=wrap;html=1;" parent="NG0mI11uhFQM5UhzqjQ7-36" vertex="1">
          <mxGeometry width="110" height="40" as="geometry" />
        </mxCell>
        <mxCell id="NG0mI11uhFQM5UhzqjQ7-22" value="&lt;u&gt;nombre&lt;/u&gt;" style="ellipse;whiteSpace=wrap;html=1;" parent="NG0mI11uhFQM5UhzqjQ7-36" vertex="1">
          <mxGeometry x="10" y="60" width="90" height="50" as="geometry" />
        </mxCell>
        <mxCell id="NG0mI11uhFQM5UhzqjQ7-23" value="marca" style="ellipse;whiteSpace=wrap;html=1;" parent="NG0mI11uhFQM5UhzqjQ7-36" vertex="1">
          <mxGeometry x="10" y="120" width="90" height="50" as="geometry" />
        </mxCell>
        <mxCell id="NG0mI11uhFQM5UhzqjQ7-24" value="precio" style="ellipse;whiteSpace=wrap;html=1;" parent="NG0mI11uhFQM5UhzqjQ7-36" vertex="1">
          <mxGeometry x="10" y="180" width="90" height="50" as="geometry" />
        </mxCell>
        <mxCell id="NG0mI11uhFQM5UhzqjQ7-25" value="tipo" style="ellipse;whiteSpace=wrap;html=1;" parent="NG0mI11uhFQM5UhzqjQ7-36" vertex="1">
          <mxGeometry x="10" y="240" width="90" height="50" as="geometry" />
        </mxCell>
        <mxCell id="NG0mI11uhFQM5UhzqjQ7-38" value="" style="group" parent="lREAkdYt76eSDly8mNPN-1" vertex="1" connectable="0">
          <mxGeometry x="630" y="310" width="110" height="460" as="geometry" />
        </mxCell>
        <mxCell id="NG0mI11uhFQM5UhzqjQ7-10" value="recetas" style="rounded=0;whiteSpace=wrap;html=1;" parent="NG0mI11uhFQM5UhzqjQ7-38" vertex="1">
          <mxGeometry width="110" height="40" as="geometry" />
        </mxCell>
        <mxCell id="NG0mI11uhFQM5UhzqjQ7-11" value="ingredientes" style="ellipse;whiteSpace=wrap;html=1;" parent="NG0mI11uhFQM5UhzqjQ7-38" vertex="1">
          <mxGeometry x="10" y="50" width="90" height="50" as="geometry" />
        </mxCell>
        <mxCell id="NG0mI11uhFQM5UhzqjQ7-12" value="cantidad" style="ellipse;whiteSpace=wrap;html=1;" parent="NG0mI11uhFQM5UhzqjQ7-38" vertex="1">
          <mxGeometry x="10" y="110" width="90" height="50" as="geometry" />
        </mxCell>
        <mxCell id="NG0mI11uhFQM5UhzqjQ7-13" value="unidad de medida" style="ellipse;whiteSpace=wrap;html=1;" parent="NG0mI11uhFQM5UhzqjQ7-38" vertex="1">
          <mxGeometry x="10" y="170" width="90" height="50" as="geometry" />
        </mxCell>
        <mxCell id="NG0mI11uhFQM5UhzqjQ7-14" value="tiempo preparación" style="ellipse;whiteSpace=wrap;html=1;" parent="NG0mI11uhFQM5UhzqjQ7-38" vertex="1">
          <mxGeometry x="10" y="230" width="90" height="50" as="geometry" />
        </mxCell>
        <mxCell id="NG0mI11uhFQM5UhzqjQ7-15" value="indicación" style="ellipse;whiteSpace=wrap;html=1;" parent="NG0mI11uhFQM5UhzqjQ7-38" vertex="1">
          <mxGeometry x="10" y="290" width="90" height="50" as="geometry" />
        </mxCell>
        <mxCell id="NG0mI11uhFQM5UhzqjQ7-16" value="costo" style="ellipse;whiteSpace=wrap;html=1;" parent="NG0mI11uhFQM5UhzqjQ7-38" vertex="1">
          <mxGeometry x="10" y="350" width="90" height="50" as="geometry" />
        </mxCell>
        <mxCell id="NG0mI11uhFQM5UhzqjQ7-17" value="complejidad" style="ellipse;whiteSpace=wrap;html=1;" parent="NG0mI11uhFQM5UhzqjQ7-38" vertex="1">
          <mxGeometry x="10" y="410" width="90" height="50" as="geometry" />
        </mxCell>
        <mxCell id="NG0mI11uhFQM5UhzqjQ7-39" value="" style="group" parent="lREAkdYt76eSDly8mNPN-1" vertex="1" connectable="0">
          <mxGeometry x="950" y="360" width="110" height="220" as="geometry" />
        </mxCell>
        <mxCell id="ITATxJA5nE6UIGPbY5kk-11" value="" style="group" parent="NG0mI11uhFQM5UhzqjQ7-39" vertex="1" connectable="0">
          <mxGeometry width="110" height="160" as="geometry" />
        </mxCell>
        <mxCell id="NG0mI11uhFQM5UhzqjQ7-19" value="fecha vencimiento" style="ellipse;whiteSpace=wrap;html=1;" parent="ITATxJA5nE6UIGPbY5kk-11" vertex="1">
          <mxGeometry x="10" y="50" width="90" height="50" as="geometry" />
        </mxCell>
        <mxCell id="NG0mI11uhFQM5UhzqjQ7-20" value="stock" style="rounded=0;whiteSpace=wrap;html=1;" parent="ITATxJA5nE6UIGPbY5kk-11" vertex="1">
          <mxGeometry width="110" height="40" as="geometry" />
        </mxCell>
        <mxCell id="NG0mI11uhFQM5UhzqjQ7-21" value="almacenam" style="ellipse;whiteSpace=wrap;html=1;" parent="ITATxJA5nE6UIGPbY5kk-11" vertex="1">
          <mxGeometry x="10" y="110" width="90" height="50" as="geometry" />
        </mxCell>
        <mxCell id="NG0mI11uhFQM5UhzqjQ7-40" style="edgeStyle=orthogonalEdgeStyle;rounded=0;orthogonalLoop=1;jettySize=auto;html=1;exitX=1;exitY=0.5;exitDx=0;exitDy=0;entryX=0;entryY=0.5;entryDx=0;entryDy=0;" parent="lREAkdYt76eSDly8mNPN-1" source="NG0mI11uhFQM5UhzqjQ7-0" target="ITATxJA5nE6UIGPbY5kk-2" edge="1">
          <mxGeometry relative="1" as="geometry">
            <mxPoint x="190" y="350" as="targetPoint" />
          </mxGeometry>
        </mxCell>
        <mxCell id="ITATxJA5nE6UIGPbY5kk-2" value="carta" style="rhombus;whiteSpace=wrap;html=1;" parent="lREAkdYt76eSDly8mNPN-1" vertex="1">
          <mxGeometry x="240" y="310" width="80" height="80" as="geometry" />
        </mxCell>
        <mxCell id="ITATxJA5nE6UIGPbY5kk-4" style="edgeStyle=orthogonalEdgeStyle;rounded=0;orthogonalLoop=1;jettySize=auto;html=1;exitX=0;exitY=0.5;exitDx=0;exitDy=0;entryX=1;entryY=0.5;entryDx=0;entryDy=0;" parent="lREAkdYt76eSDly8mNPN-1" source="NG0mI11uhFQM5UhzqjQ7-7" target="ITATxJA5nE6UIGPbY5kk-2" edge="1">
          <mxGeometry relative="1" as="geometry" />
        </mxCell>
        <mxCell id="ITATxJA5nE6UIGPbY5kk-24" style="edgeStyle=orthogonalEdgeStyle;rounded=0;orthogonalLoop=1;jettySize=auto;html=1;exitX=1;exitY=0.5;exitDx=0;exitDy=0;entryX=-0.001;entryY=0.628;entryDx=0;entryDy=0;entryPerimeter=0;" parent="lREAkdYt76eSDly8mNPN-1" source="ITATxJA5nE6UIGPbY5kk-7" target="NG0mI11uhFQM5UhzqjQ7-20" edge="1">
          <mxGeometry relative="1" as="geometry" />
        </mxCell>
        <mxCell id="ITATxJA5nE6UIGPbY5kk-7" value="mercadería" style="rhombus;whiteSpace=wrap;html=1;" parent="lREAkdYt76eSDly8mNPN-1" vertex="1">
          <mxGeometry x="800" y="345" width="80" height="80" as="geometry" />
        </mxCell>
        <mxCell id="ITATxJA5nE6UIGPbY5kk-12" style="edgeStyle=orthogonalEdgeStyle;rounded=0;orthogonalLoop=1;jettySize=auto;html=1;exitX=1;exitY=0.5;exitDx=0;exitDy=0;entryX=0;entryY=0.5;entryDx=0;entryDy=0;" parent="lREAkdYt76eSDly8mNPN-1" source="NG0mI11uhFQM5UhzqjQ7-11" target="ITATxJA5nE6UIGPbY5kk-7" edge="1">
          <mxGeometry relative="1" as="geometry">
            <Array as="points">
              <mxPoint x="800" y="385" />
            </Array>
          </mxGeometry>
        </mxCell>
        <mxCell id="ITATxJA5nE6UIGPbY5kk-13" style="edgeStyle=orthogonalEdgeStyle;rounded=0;orthogonalLoop=1;jettySize=auto;html=1;exitX=0.5;exitY=0;exitDx=0;exitDy=0;entryX=0.5;entryY=1;entryDx=0;entryDy=0;" parent="lREAkdYt76eSDly8mNPN-1" source="NG0mI11uhFQM5UhzqjQ7-6" target="ITATxJA5nE6UIGPbY5kk-2" edge="1">
          <mxGeometry relative="1" as="geometry">
            <Array as="points">
              <mxPoint x="280" y="425" />
              <mxPoint x="280" y="425" />
            </Array>
          </mxGeometry>
        </mxCell>
        <mxCell id="ITATxJA5nE6UIGPbY5kk-20" style="edgeStyle=orthogonalEdgeStyle;rounded=0;orthogonalLoop=1;jettySize=auto;html=1;exitX=0.5;exitY=0;exitDx=0;exitDy=0;entryX=0.5;entryY=1;entryDx=0;entryDy=0;" parent="lREAkdYt76eSDly8mNPN-1" source="ITATxJA5nE6UIGPbY5kk-16" target="NG0mI11uhFQM5UhzqjQ7-27" edge="1">
          <mxGeometry relative="1" as="geometry" />
        </mxCell>
        <mxCell id="ITATxJA5nE6UIGPbY5kk-16" value="menú" style="rhombus;whiteSpace=wrap;html=1;" parent="lREAkdYt76eSDly8mNPN-1" vertex="1">
          <mxGeometry x="240" y="200" width="80" height="80" as="geometry" />
        </mxCell>
        <mxCell id="ITATxJA5nE6UIGPbY5kk-17" style="edgeStyle=orthogonalEdgeStyle;rounded=0;orthogonalLoop=1;jettySize=auto;html=1;exitX=0.891;exitY=-0.025;exitDx=0;exitDy=0;entryX=0;entryY=0.5;entryDx=0;entryDy=0;exitPerimeter=0;" parent="lREAkdYt76eSDly8mNPN-1" source="NG0mI11uhFQM5UhzqjQ7-0" target="ITATxJA5nE6UIGPbY5kk-16" edge="1">
          <mxGeometry relative="1" as="geometry">
            <Array as="points">
              <mxPoint x="158" y="240" />
            </Array>
          </mxGeometry>
        </mxCell>
        <mxCell id="ITATxJA5nE6UIGPbY5kk-18" style="edgeStyle=orthogonalEdgeStyle;rounded=0;orthogonalLoop=1;jettySize=auto;html=1;entryX=1;entryY=0.5;entryDx=0;entryDy=0;" parent="lREAkdYt76eSDly8mNPN-1" target="ITATxJA5nE6UIGPbY5kk-16" edge="1">
          <mxGeometry relative="1" as="geometry">
            <mxPoint x="455" y="330" as="sourcePoint" />
            <Array as="points">
              <mxPoint x="455" y="240" />
            </Array>
          </mxGeometry>
        </mxCell>
        <mxCell id="ITATxJA5nE6UIGPbY5kk-19" value="" style="group" parent="lREAkdYt76eSDly8mNPN-1" vertex="1" connectable="0">
          <mxGeometry x="235" y="60" width="90" height="110" as="geometry" />
        </mxCell>
        <mxCell id="NG0mI11uhFQM5UhzqjQ7-26" value="precio" style="ellipse;whiteSpace=wrap;html=1;" parent="ITATxJA5nE6UIGPbY5kk-19" vertex="1">
          <mxGeometry width="90" height="50" as="geometry" />
        </mxCell>
        <mxCell id="NG0mI11uhFQM5UhzqjQ7-27" value="opción" style="ellipse;whiteSpace=wrap;html=1;" parent="ITATxJA5nE6UIGPbY5kk-19" vertex="1">
          <mxGeometry y="60" width="90" height="50" as="geometry" />
        </mxCell>
        <mxCell id="ITATxJA5nE6UIGPbY5kk-22" style="edgeStyle=orthogonalEdgeStyle;rounded=0;orthogonalLoop=1;jettySize=auto;html=1;entryX=0.5;entryY=0;entryDx=0;entryDy=0;" parent="lREAkdYt76eSDly8mNPN-1" source="ITATxJA5nE6UIGPbY5kk-21" target="NG0mI11uhFQM5UhzqjQ7-0" edge="1">
          <mxGeometry relative="1" as="geometry" />
        </mxCell>
        <mxCell id="ITATxJA5nE6UIGPbY5kk-21" value="chef" style="rhombus;whiteSpace=wrap;html=1;" parent="lREAkdYt76eSDly8mNPN-1" vertex="1">
          <mxGeometry x="380" y="-20" width="80" height="80" as="geometry" />
        </mxCell>
        <mxCell id="ITATxJA5nE6UIGPbY5kk-23" style="edgeStyle=orthogonalEdgeStyle;rounded=0;orthogonalLoop=1;jettySize=auto;html=1;exitX=0.5;exitY=0;exitDx=0;exitDy=0;entryX=1;entryY=0.5;entryDx=0;entryDy=0;" parent="lREAkdYt76eSDly8mNPN-1" source="NG0mI11uhFQM5UhzqjQ7-10" target="ITATxJA5nE6UIGPbY5kk-21" edge="1">
          <mxGeometry relative="1" as="geometry" />
        </mxCell>
      </root>
    </mxGraphModel>
  </diagram>
  <diagram id="s4Wf7vU0N8zGF6CY7whE" name="Página-3">
    <mxGraphModel dx="1553" dy="619" grid="1" gridSize="10" guides="1" tooltips="1" connect="1" arrows="1" fold="1" page="1" pageScale="1" pageWidth="1200" pageHeight="1600" math="0" shadow="0">
      <root>
        <mxCell id="0" />
        <mxCell id="1" parent="0" />
        <mxCell id="-e-vEmIo11bUtBHAeG6M-25" value="" style="group" vertex="1" connectable="0" parent="1">
          <mxGeometry x="160" y="440" width="270" height="260" as="geometry" />
        </mxCell>
        <mxCell id="-e-vEmIo11bUtBHAeG6M-1" value="plato" style="rounded=0;whiteSpace=wrap;html=1;" vertex="1" parent="-e-vEmIo11bUtBHAeG6M-25">
          <mxGeometry x="110" y="60" width="70" height="30" as="geometry" />
        </mxCell>
        <mxCell id="-e-vEmIo11bUtBHAeG6M-6" value="nombre" style="ellipse;whiteSpace=wrap;html=1;" vertex="1" parent="-e-vEmIo11bUtBHAeG6M-25">
          <mxGeometry y="50" width="80" height="40" as="geometry" />
        </mxCell>
        <mxCell id="-e-vEmIo11bUtBHAeG6M-7" value="descripción" style="ellipse;whiteSpace=wrap;html=1;" vertex="1" parent="-e-vEmIo11bUtBHAeG6M-25">
          <mxGeometry y="100" width="80" height="40" as="geometry" />
        </mxCell>
        <mxCell id="-e-vEmIo11bUtBHAeG6M-8" value="precio" style="ellipse;whiteSpace=wrap;html=1;" vertex="1" parent="-e-vEmIo11bUtBHAeG6M-25">
          <mxGeometry width="80" height="40" as="geometry" />
        </mxCell>
        <mxCell id="-e-vEmIo11bUtBHAeG6M-9" value="calorías" style="ellipse;whiteSpace=wrap;html=1;" vertex="1" parent="-e-vEmIo11bUtBHAeG6M-25">
          <mxGeometry y="150" width="80" height="40" as="geometry" />
        </mxCell>
        <mxCell id="-e-vEmIo11bUtBHAeG6M-13" value="" style="endArrow=none;html=1;rounded=0;entryX=1;entryY=0.5;entryDx=0;entryDy=0;exitX=0;exitY=0.25;exitDx=0;exitDy=0;" edge="1" parent="-e-vEmIo11bUtBHAeG6M-25" source="-e-vEmIo11bUtBHAeG6M-1" target="-e-vEmIo11bUtBHAeG6M-8">
          <mxGeometry width="50" height="50" relative="1" as="geometry">
            <mxPoint x="150" y="180" as="sourcePoint" />
            <mxPoint x="200" y="130" as="targetPoint" />
          </mxGeometry>
        </mxCell>
        <mxCell id="-e-vEmIo11bUtBHAeG6M-14" value="" style="endArrow=none;html=1;rounded=0;entryX=1;entryY=0.5;entryDx=0;entryDy=0;" edge="1" parent="-e-vEmIo11bUtBHAeG6M-25" target="-e-vEmIo11bUtBHAeG6M-6">
          <mxGeometry width="50" height="50" relative="1" as="geometry">
            <mxPoint x="110" y="70" as="sourcePoint" />
            <mxPoint x="90" y="30" as="targetPoint" />
          </mxGeometry>
        </mxCell>
        <mxCell id="-e-vEmIo11bUtBHAeG6M-15" value="" style="endArrow=none;html=1;rounded=0;entryX=0;entryY=0.5;entryDx=0;entryDy=0;exitX=1;exitY=0.5;exitDx=0;exitDy=0;" edge="1" parent="-e-vEmIo11bUtBHAeG6M-25" source="-e-vEmIo11bUtBHAeG6M-7" target="-e-vEmIo11bUtBHAeG6M-1">
          <mxGeometry width="50" height="50" relative="1" as="geometry">
            <mxPoint x="128" y="90" as="sourcePoint" />
            <mxPoint x="100" y="40" as="targetPoint" />
          </mxGeometry>
        </mxCell>
        <mxCell id="-e-vEmIo11bUtBHAeG6M-16" value="" style="endArrow=none;html=1;rounded=0;entryX=0;entryY=0.75;entryDx=0;entryDy=0;exitX=1;exitY=0.5;exitDx=0;exitDy=0;" edge="1" parent="-e-vEmIo11bUtBHAeG6M-25" source="-e-vEmIo11bUtBHAeG6M-9" target="-e-vEmIo11bUtBHAeG6M-1">
          <mxGeometry width="50" height="50" relative="1" as="geometry">
            <mxPoint x="138" y="100" as="sourcePoint" />
            <mxPoint x="110" y="50" as="targetPoint" />
          </mxGeometry>
        </mxCell>
        <mxCell id="-e-vEmIo11bUtBHAeG6M-17" value="isa" style="triangle;whiteSpace=wrap;html=1;rotation=-90;" vertex="1" parent="-e-vEmIo11bUtBHAeG6M-25">
          <mxGeometry x="122.5" y="150" width="45" height="47.5" as="geometry" />
        </mxCell>
        <mxCell id="-e-vEmIo11bUtBHAeG6M-18" value="entrada" style="ellipse;whiteSpace=wrap;html=1;" vertex="1" parent="-e-vEmIo11bUtBHAeG6M-25">
          <mxGeometry x="20" y="220" width="80" height="40" as="geometry" />
        </mxCell>
        <mxCell id="-e-vEmIo11bUtBHAeG6M-19" value="principal" style="ellipse;whiteSpace=wrap;html=1;" vertex="1" parent="-e-vEmIo11bUtBHAeG6M-25">
          <mxGeometry x="105" y="220" width="80" height="40" as="geometry" />
        </mxCell>
        <mxCell id="-e-vEmIo11bUtBHAeG6M-20" value="postre" style="ellipse;whiteSpace=wrap;html=1;" vertex="1" parent="-e-vEmIo11bUtBHAeG6M-25">
          <mxGeometry x="190" y="220" width="80" height="40" as="geometry" />
        </mxCell>
        <mxCell id="-e-vEmIo11bUtBHAeG6M-21" value="" style="endArrow=none;html=1;rounded=0;entryX=0;entryY=0.25;entryDx=0;entryDy=0;exitX=0.5;exitY=0;exitDx=0;exitDy=0;" edge="1" parent="-e-vEmIo11bUtBHAeG6M-25" source="-e-vEmIo11bUtBHAeG6M-18" target="-e-vEmIo11bUtBHAeG6M-17">
          <mxGeometry width="50" height="50" relative="1" as="geometry">
            <mxPoint x="90" y="140" as="sourcePoint" />
            <mxPoint x="120" y="53" as="targetPoint" />
          </mxGeometry>
        </mxCell>
        <mxCell id="-e-vEmIo11bUtBHAeG6M-22" value="" style="endArrow=none;html=1;rounded=0;entryX=0;entryY=0.5;entryDx=0;entryDy=0;exitX=0.5;exitY=0;exitDx=0;exitDy=0;" edge="1" parent="-e-vEmIo11bUtBHAeG6M-25" source="-e-vEmIo11bUtBHAeG6M-19" target="-e-vEmIo11bUtBHAeG6M-17">
          <mxGeometry width="50" height="50" relative="1" as="geometry">
            <mxPoint x="70" y="230" as="sourcePoint" />
            <mxPoint x="143" y="206" as="targetPoint" />
          </mxGeometry>
        </mxCell>
        <mxCell id="-e-vEmIo11bUtBHAeG6M-23" value="" style="endArrow=none;html=1;rounded=0;entryX=0;entryY=0.75;entryDx=0;entryDy=0;exitX=0.5;exitY=0;exitDx=0;exitDy=0;" edge="1" parent="-e-vEmIo11bUtBHAeG6M-25" source="-e-vEmIo11bUtBHAeG6M-20" target="-e-vEmIo11bUtBHAeG6M-17">
          <mxGeometry width="50" height="50" relative="1" as="geometry">
            <mxPoint x="155" y="230" as="sourcePoint" />
            <mxPoint x="155" y="206" as="targetPoint" />
          </mxGeometry>
        </mxCell>
        <mxCell id="-e-vEmIo11bUtBHAeG6M-24" value="" style="endArrow=none;html=1;rounded=0;entryX=0.5;entryY=1;entryDx=0;entryDy=0;exitX=1;exitY=0.5;exitDx=0;exitDy=0;" edge="1" parent="-e-vEmIo11bUtBHAeG6M-25" source="-e-vEmIo11bUtBHAeG6M-17" target="-e-vEmIo11bUtBHAeG6M-1">
          <mxGeometry width="50" height="50" relative="1" as="geometry">
            <mxPoint x="165" y="280" as="sourcePoint" />
            <mxPoint x="165" y="256" as="targetPoint" />
          </mxGeometry>
        </mxCell>
        <mxCell id="-e-vEmIo11bUtBHAeG6M-57" value="" style="group" vertex="1" connectable="0" parent="1">
          <mxGeometry x="660" y="260" width="335" height="400" as="geometry" />
        </mxCell>
        <mxCell id="-e-vEmIo11bUtBHAeG6M-43" value="" style="group" vertex="1" connectable="0" parent="-e-vEmIo11bUtBHAeG6M-57">
          <mxGeometry width="260" height="270" as="geometry" />
        </mxCell>
        <mxCell id="-e-vEmIo11bUtBHAeG6M-2" value="bebidas" style="rounded=0;whiteSpace=wrap;html=1;" vertex="1" parent="-e-vEmIo11bUtBHAeG6M-43">
          <mxGeometry x="90" y="80" width="70" height="30" as="geometry" />
        </mxCell>
        <mxCell id="-e-vEmIo11bUtBHAeG6M-26" value="nombre" style="ellipse;whiteSpace=wrap;html=1;" vertex="1" parent="-e-vEmIo11bUtBHAeG6M-43">
          <mxGeometry x="180" y="100" width="80" height="40" as="geometry" />
        </mxCell>
        <mxCell id="-e-vEmIo11bUtBHAeG6M-27" value="volumen" style="ellipse;whiteSpace=wrap;html=1;" vertex="1" parent="-e-vEmIo11bUtBHAeG6M-43">
          <mxGeometry x="180" y="150" width="80" height="40" as="geometry" />
        </mxCell>
        <mxCell id="-e-vEmIo11bUtBHAeG6M-28" value="precio" style="ellipse;whiteSpace=wrap;html=1;" vertex="1" parent="-e-vEmIo11bUtBHAeG6M-43">
          <mxGeometry x="180" width="80" height="40" as="geometry" />
        </mxCell>
        <mxCell id="-e-vEmIo11bUtBHAeG6M-29" value="marca" style="ellipse;whiteSpace=wrap;html=1;" vertex="1" parent="-e-vEmIo11bUtBHAeG6M-43">
          <mxGeometry x="180" y="50" width="80" height="40" as="geometry" />
        </mxCell>
        <mxCell id="-e-vEmIo11bUtBHAeG6M-30" value="" style="endArrow=none;html=1;rounded=0;exitX=0;exitY=0.5;exitDx=0;exitDy=0;entryX=1;entryY=0;entryDx=0;entryDy=0;" edge="1" parent="-e-vEmIo11bUtBHAeG6M-43" source="-e-vEmIo11bUtBHAeG6M-28" target="-e-vEmIo11bUtBHAeG6M-2">
          <mxGeometry width="50" height="50" relative="1" as="geometry">
            <mxPoint x="-130" y="118" as="sourcePoint" />
            <mxPoint x="90" y="30" as="targetPoint" />
          </mxGeometry>
        </mxCell>
        <mxCell id="-e-vEmIo11bUtBHAeG6M-31" value="" style="endArrow=none;html=1;rounded=0;exitX=0;exitY=0.5;exitDx=0;exitDy=0;entryX=1;entryY=0.25;entryDx=0;entryDy=0;" edge="1" parent="-e-vEmIo11bUtBHAeG6M-43" source="-e-vEmIo11bUtBHAeG6M-29" target="-e-vEmIo11bUtBHAeG6M-2">
          <mxGeometry width="50" height="50" relative="1" as="geometry">
            <mxPoint x="190" y="30" as="sourcePoint" />
            <mxPoint x="170" y="90" as="targetPoint" />
          </mxGeometry>
        </mxCell>
        <mxCell id="-e-vEmIo11bUtBHAeG6M-32" value="" style="endArrow=none;html=1;rounded=0;exitX=0;exitY=0.5;exitDx=0;exitDy=0;entryX=1;entryY=0.5;entryDx=0;entryDy=0;" edge="1" parent="-e-vEmIo11bUtBHAeG6M-43" source="-e-vEmIo11bUtBHAeG6M-26" target="-e-vEmIo11bUtBHAeG6M-2">
          <mxGeometry width="50" height="50" relative="1" as="geometry">
            <mxPoint x="190" y="80" as="sourcePoint" />
            <mxPoint x="170" y="98" as="targetPoint" />
          </mxGeometry>
        </mxCell>
        <mxCell id="-e-vEmIo11bUtBHAeG6M-33" value="" style="endArrow=none;html=1;rounded=0;exitX=0;exitY=0.5;exitDx=0;exitDy=0;entryX=1;entryY=0.75;entryDx=0;entryDy=0;" edge="1" parent="-e-vEmIo11bUtBHAeG6M-43" source="-e-vEmIo11bUtBHAeG6M-27" target="-e-vEmIo11bUtBHAeG6M-2">
          <mxGeometry width="50" height="50" relative="1" as="geometry">
            <mxPoint x="190" y="130" as="sourcePoint" />
            <mxPoint x="170" y="105" as="targetPoint" />
          </mxGeometry>
        </mxCell>
        <mxCell id="-e-vEmIo11bUtBHAeG6M-35" value="isa" style="triangle;whiteSpace=wrap;html=1;rotation=-90;" vertex="1" parent="-e-vEmIo11bUtBHAeG6M-43">
          <mxGeometry x="102.5" y="160" width="45" height="47.5" as="geometry" />
        </mxCell>
        <mxCell id="-e-vEmIo11bUtBHAeG6M-36" value="agua" style="ellipse;whiteSpace=wrap;html=1;" vertex="1" parent="-e-vEmIo11bUtBHAeG6M-43">
          <mxGeometry y="230" width="80" height="40" as="geometry" />
        </mxCell>
        <mxCell id="-e-vEmIo11bUtBHAeG6M-37" value="gaseosa" style="ellipse;whiteSpace=wrap;html=1;" vertex="1" parent="-e-vEmIo11bUtBHAeG6M-43">
          <mxGeometry x="85" y="230" width="80" height="40" as="geometry" />
        </mxCell>
        <mxCell id="-e-vEmIo11bUtBHAeG6M-38" value="alcohol" style="ellipse;whiteSpace=wrap;html=1;" vertex="1" parent="-e-vEmIo11bUtBHAeG6M-43">
          <mxGeometry x="170" y="230" width="80" height="40" as="geometry" />
        </mxCell>
        <mxCell id="-e-vEmIo11bUtBHAeG6M-39" value="" style="endArrow=none;html=1;rounded=0;entryX=0;entryY=0.25;entryDx=0;entryDy=0;exitX=0.5;exitY=0;exitDx=0;exitDy=0;" edge="1" parent="-e-vEmIo11bUtBHAeG6M-43" source="-e-vEmIo11bUtBHAeG6M-36" target="-e-vEmIo11bUtBHAeG6M-35">
          <mxGeometry width="50" height="50" relative="1" as="geometry">
            <mxPoint x="30" y="180" as="sourcePoint" />
            <mxPoint x="90" y="13" as="targetPoint" />
          </mxGeometry>
        </mxCell>
        <mxCell id="-e-vEmIo11bUtBHAeG6M-40" value="" style="endArrow=none;html=1;rounded=0;entryX=0;entryY=0.5;entryDx=0;entryDy=0;exitX=0.5;exitY=0;exitDx=0;exitDy=0;" edge="1" parent="-e-vEmIo11bUtBHAeG6M-43" source="-e-vEmIo11bUtBHAeG6M-37" target="-e-vEmIo11bUtBHAeG6M-35">
          <mxGeometry width="50" height="50" relative="1" as="geometry">
            <mxPoint x="115" y="180" as="sourcePoint" />
            <mxPoint x="113" y="166" as="targetPoint" />
          </mxGeometry>
        </mxCell>
        <mxCell id="-e-vEmIo11bUtBHAeG6M-41" value="" style="endArrow=none;html=1;rounded=0;entryX=0;entryY=0.75;entryDx=0;entryDy=0;exitX=0.5;exitY=0;exitDx=0;exitDy=0;" edge="1" parent="-e-vEmIo11bUtBHAeG6M-43" source="-e-vEmIo11bUtBHAeG6M-38" target="-e-vEmIo11bUtBHAeG6M-35">
          <mxGeometry width="50" height="50" relative="1" as="geometry">
            <mxPoint x="200" y="180" as="sourcePoint" />
            <mxPoint x="125" y="166" as="targetPoint" />
          </mxGeometry>
        </mxCell>
        <mxCell id="-e-vEmIo11bUtBHAeG6M-42" value="" style="endArrow=none;html=1;rounded=0;entryX=0.5;entryY=1;entryDx=0;entryDy=0;exitX=1;exitY=0.5;exitDx=0;exitDy=0;" edge="1" parent="-e-vEmIo11bUtBHAeG6M-43" source="-e-vEmIo11bUtBHAeG6M-35" target="-e-vEmIo11bUtBHAeG6M-2">
          <mxGeometry width="50" height="50" relative="1" as="geometry">
            <mxPoint x="125" y="181.25" as="sourcePoint" />
            <mxPoint x="114.5" y="69" as="targetPoint" />
          </mxGeometry>
        </mxCell>
        <mxCell id="-e-vEmIo11bUtBHAeG6M-47" value="isa" style="triangle;whiteSpace=wrap;html=1;rotation=-90;" vertex="1" parent="-e-vEmIo11bUtBHAeG6M-57">
          <mxGeometry x="187.5" y="290" width="45" height="47.5" as="geometry" />
        </mxCell>
        <mxCell id="-e-vEmIo11bUtBHAeG6M-48" value="vino" style="ellipse;whiteSpace=wrap;html=1;" vertex="1" parent="-e-vEmIo11bUtBHAeG6M-57">
          <mxGeometry x="85" y="360" width="80" height="40" as="geometry" />
        </mxCell>
        <mxCell id="-e-vEmIo11bUtBHAeG6M-49" value="cerveza" style="ellipse;whiteSpace=wrap;html=1;" vertex="1" parent="-e-vEmIo11bUtBHAeG6M-57">
          <mxGeometry x="170" y="360" width="80" height="40" as="geometry" />
        </mxCell>
        <mxCell id="-e-vEmIo11bUtBHAeG6M-50" value="vino espum" style="ellipse;whiteSpace=wrap;html=1;" vertex="1" parent="-e-vEmIo11bUtBHAeG6M-57">
          <mxGeometry x="255" y="360" width="80" height="40" as="geometry" />
        </mxCell>
        <mxCell id="-e-vEmIo11bUtBHAeG6M-51" value="" style="endArrow=none;html=1;rounded=0;entryX=0;entryY=0.25;entryDx=0;entryDy=0;exitX=0.5;exitY=0;exitDx=0;exitDy=0;" edge="1" parent="-e-vEmIo11bUtBHAeG6M-57" source="-e-vEmIo11bUtBHAeG6M-48" target="-e-vEmIo11bUtBHAeG6M-47">
          <mxGeometry width="50" height="50" relative="1" as="geometry">
            <mxPoint x="115" y="310" as="sourcePoint" />
            <mxPoint x="175" y="143" as="targetPoint" />
          </mxGeometry>
        </mxCell>
        <mxCell id="-e-vEmIo11bUtBHAeG6M-52" value="" style="endArrow=none;html=1;rounded=0;entryX=0;entryY=0.5;entryDx=0;entryDy=0;exitX=0.5;exitY=0;exitDx=0;exitDy=0;" edge="1" parent="-e-vEmIo11bUtBHAeG6M-57" source="-e-vEmIo11bUtBHAeG6M-49" target="-e-vEmIo11bUtBHAeG6M-47">
          <mxGeometry width="50" height="50" relative="1" as="geometry">
            <mxPoint x="200" y="310" as="sourcePoint" />
            <mxPoint x="198" y="296" as="targetPoint" />
          </mxGeometry>
        </mxCell>
        <mxCell id="-e-vEmIo11bUtBHAeG6M-53" value="" style="endArrow=none;html=1;rounded=0;entryX=0;entryY=0.75;entryDx=0;entryDy=0;exitX=0.5;exitY=0;exitDx=0;exitDy=0;" edge="1" parent="-e-vEmIo11bUtBHAeG6M-57" source="-e-vEmIo11bUtBHAeG6M-50" target="-e-vEmIo11bUtBHAeG6M-47">
          <mxGeometry width="50" height="50" relative="1" as="geometry">
            <mxPoint x="285" y="310" as="sourcePoint" />
            <mxPoint x="210" y="296" as="targetPoint" />
          </mxGeometry>
        </mxCell>
        <mxCell id="-e-vEmIo11bUtBHAeG6M-56" value="" style="endArrow=none;html=1;rounded=0;entryX=0.5;entryY=1;entryDx=0;entryDy=0;exitX=1;exitY=0.5;exitDx=0;exitDy=0;" edge="1" parent="-e-vEmIo11bUtBHAeG6M-57" source="-e-vEmIo11bUtBHAeG6M-47" target="-e-vEmIo11bUtBHAeG6M-38">
          <mxGeometry width="50" height="50" relative="1" as="geometry">
            <mxPoint x="135" y="171" as="sourcePoint" />
            <mxPoint x="135" y="120" as="targetPoint" />
          </mxGeometry>
        </mxCell>
        <mxCell id="-e-vEmIo11bUtBHAeG6M-66" value="" style="group" vertex="1" connectable="0" parent="1">
          <mxGeometry x="780" y="960" width="260" height="95" as="geometry" />
        </mxCell>
        <mxCell id="-e-vEmIo11bUtBHAeG6M-5" value="stock" style="rounded=0;whiteSpace=wrap;html=1;" vertex="1" parent="-e-vEmIo11bUtBHAeG6M-66">
          <mxGeometry x="95" y="5" width="70" height="30" as="geometry" />
        </mxCell>
        <mxCell id="-e-vEmIo11bUtBHAeG6M-58" value="vto" style="ellipse;whiteSpace=wrap;html=1;" vertex="1" parent="-e-vEmIo11bUtBHAeG6M-66">
          <mxGeometry width="80" height="40" as="geometry" />
        </mxCell>
        <mxCell id="-e-vEmIo11bUtBHAeG6M-59" value="mercadería" style="ellipse;whiteSpace=wrap;html=1;" vertex="1" parent="-e-vEmIo11bUtBHAeG6M-66">
          <mxGeometry y="55" width="80" height="40" as="geometry" />
        </mxCell>
        <mxCell id="-e-vEmIo11bUtBHAeG6M-60" value="proveedor" style="ellipse;whiteSpace=wrap;html=1;" vertex="1" parent="-e-vEmIo11bUtBHAeG6M-66">
          <mxGeometry x="90" y="55" width="80" height="40" as="geometry" />
        </mxCell>
        <mxCell id="-e-vEmIo11bUtBHAeG6M-61" value="f. ingreso" style="ellipse;whiteSpace=wrap;html=1;" vertex="1" parent="-e-vEmIo11bUtBHAeG6M-66">
          <mxGeometry x="180" y="55" width="80" height="40" as="geometry" />
        </mxCell>
        <mxCell id="-e-vEmIo11bUtBHAeG6M-62" value="" style="endArrow=none;html=1;rounded=0;entryX=1;entryY=0.5;entryDx=0;entryDy=0;exitX=0.5;exitY=0;exitDx=0;exitDy=0;" edge="1" parent="-e-vEmIo11bUtBHAeG6M-66" source="-e-vEmIo11bUtBHAeG6M-61" target="-e-vEmIo11bUtBHAeG6M-5">
          <mxGeometry width="50" height="50" relative="1" as="geometry">
            <mxPoint x="430" y="-135" as="sourcePoint" />
            <mxPoint x="430" y="-159" as="targetPoint" />
          </mxGeometry>
        </mxCell>
        <mxCell id="-e-vEmIo11bUtBHAeG6M-63" value="" style="endArrow=none;html=1;rounded=0;entryX=0.5;entryY=1;entryDx=0;entryDy=0;exitX=0.5;exitY=0;exitDx=0;exitDy=0;" edge="1" parent="-e-vEmIo11bUtBHAeG6M-66" source="-e-vEmIo11bUtBHAeG6M-60" target="-e-vEmIo11bUtBHAeG6M-5">
          <mxGeometry width="50" height="50" relative="1" as="geometry">
            <mxPoint x="230" y="65" as="sourcePoint" />
            <mxPoint x="175" y="30" as="targetPoint" />
          </mxGeometry>
        </mxCell>
        <mxCell id="-e-vEmIo11bUtBHAeG6M-64" value="" style="endArrow=none;html=1;rounded=0;entryX=0;entryY=1;entryDx=0;entryDy=0;exitX=1;exitY=0;exitDx=0;exitDy=0;" edge="1" parent="-e-vEmIo11bUtBHAeG6M-66" source="-e-vEmIo11bUtBHAeG6M-59" target="-e-vEmIo11bUtBHAeG6M-5">
          <mxGeometry width="50" height="50" relative="1" as="geometry">
            <mxPoint x="140" y="65" as="sourcePoint" />
            <mxPoint x="140" y="45" as="targetPoint" />
          </mxGeometry>
        </mxCell>
        <mxCell id="-e-vEmIo11bUtBHAeG6M-65" value="" style="endArrow=none;html=1;rounded=0;entryX=0;entryY=0.5;entryDx=0;entryDy=0;exitX=1;exitY=0.5;exitDx=0;exitDy=0;" edge="1" parent="-e-vEmIo11bUtBHAeG6M-66" source="-e-vEmIo11bUtBHAeG6M-58" target="-e-vEmIo11bUtBHAeG6M-5">
          <mxGeometry width="50" height="50" relative="1" as="geometry">
            <mxPoint x="78" y="71" as="sourcePoint" />
            <mxPoint x="105" y="45" as="targetPoint" />
          </mxGeometry>
        </mxCell>
        <mxCell id="-e-vEmIo11bUtBHAeG6M-76" value="" style="group" vertex="1" connectable="0" parent="1">
          <mxGeometry x="780" y="760" width="260" height="90" as="geometry" />
        </mxCell>
        <mxCell id="-e-vEmIo11bUtBHAeG6M-4" value="ingredientes" style="rounded=0;whiteSpace=wrap;html=1;" vertex="1" parent="-e-vEmIo11bUtBHAeG6M-76">
          <mxGeometry x="80" y="55" width="90" height="30" as="geometry" />
        </mxCell>
        <mxCell id="-e-vEmIo11bUtBHAeG6M-68" value="ingrediente" style="ellipse;whiteSpace=wrap;html=1;" vertex="1" parent="-e-vEmIo11bUtBHAeG6M-76">
          <mxGeometry width="80" height="40" as="geometry" />
        </mxCell>
        <mxCell id="-e-vEmIo11bUtBHAeG6M-69" value="calorías" style="ellipse;whiteSpace=wrap;html=1;" vertex="1" parent="-e-vEmIo11bUtBHAeG6M-76">
          <mxGeometry x="90" width="80" height="40" as="geometry" />
        </mxCell>
        <mxCell id="-e-vEmIo11bUtBHAeG6M-70" value="t. cocción" style="ellipse;whiteSpace=wrap;html=1;" vertex="1" parent="-e-vEmIo11bUtBHAeG6M-76">
          <mxGeometry x="180" width="80" height="40" as="geometry" />
        </mxCell>
        <mxCell id="-e-vEmIo11bUtBHAeG6M-71" value="cocción?" style="ellipse;whiteSpace=wrap;html=1;" vertex="1" parent="-e-vEmIo11bUtBHAeG6M-76">
          <mxGeometry x="180" y="50" width="80" height="40" as="geometry" />
        </mxCell>
        <mxCell id="-e-vEmIo11bUtBHAeG6M-72" value="" style="endArrow=none;html=1;rounded=0;entryX=0;entryY=0;entryDx=0;entryDy=0;exitX=1;exitY=1;exitDx=0;exitDy=0;" edge="1" parent="-e-vEmIo11bUtBHAeG6M-76" source="-e-vEmIo11bUtBHAeG6M-68" target="-e-vEmIo11bUtBHAeG6M-4">
          <mxGeometry width="50" height="50" relative="1" as="geometry">
            <mxPoint x="130" y="205" as="sourcePoint" />
            <mxPoint x="130" y="185" as="targetPoint" />
          </mxGeometry>
        </mxCell>
        <mxCell id="-e-vEmIo11bUtBHAeG6M-73" value="" style="endArrow=none;html=1;rounded=0;entryX=0.5;entryY=0;entryDx=0;entryDy=0;exitX=0.5;exitY=1;exitDx=0;exitDy=0;" edge="1" parent="-e-vEmIo11bUtBHAeG6M-76" source="-e-vEmIo11bUtBHAeG6M-69" target="-e-vEmIo11bUtBHAeG6M-4">
          <mxGeometry width="50" height="50" relative="1" as="geometry">
            <mxPoint x="78" y="44" as="sourcePoint" />
            <mxPoint x="90" y="65" as="targetPoint" />
          </mxGeometry>
        </mxCell>
        <mxCell id="-e-vEmIo11bUtBHAeG6M-74" value="" style="endArrow=none;html=1;rounded=0;entryX=1;entryY=0;entryDx=0;entryDy=0;exitX=0;exitY=1;exitDx=0;exitDy=0;" edge="1" parent="-e-vEmIo11bUtBHAeG6M-76" source="-e-vEmIo11bUtBHAeG6M-70" target="-e-vEmIo11bUtBHAeG6M-4">
          <mxGeometry width="50" height="50" relative="1" as="geometry">
            <mxPoint x="140" y="50" as="sourcePoint" />
            <mxPoint x="135" y="65" as="targetPoint" />
          </mxGeometry>
        </mxCell>
        <mxCell id="-e-vEmIo11bUtBHAeG6M-75" value="" style="endArrow=none;html=1;rounded=0;entryX=1;entryY=0.5;entryDx=0;entryDy=0;exitX=0;exitY=0.5;exitDx=0;exitDy=0;" edge="1" parent="-e-vEmIo11bUtBHAeG6M-76" source="-e-vEmIo11bUtBHAeG6M-71" target="-e-vEmIo11bUtBHAeG6M-4">
          <mxGeometry width="50" height="50" relative="1" as="geometry">
            <mxPoint x="202" y="44" as="sourcePoint" />
            <mxPoint x="180" y="65" as="targetPoint" />
          </mxGeometry>
        </mxCell>
        <mxCell id="-e-vEmIo11bUtBHAeG6M-91" value="" style="group" vertex="1" connectable="0" parent="1">
          <mxGeometry x="410" y="760" width="260" height="220" as="geometry" />
        </mxCell>
        <mxCell id="-e-vEmIo11bUtBHAeG6M-3" value="recetas" style="rounded=0;whiteSpace=wrap;html=1;" vertex="1" parent="-e-vEmIo11bUtBHAeG6M-91">
          <mxGeometry x="100" y="55" width="70" height="30" as="geometry" />
        </mxCell>
        <mxCell id="-e-vEmIo11bUtBHAeG6M-77" value="receta" style="ellipse;whiteSpace=wrap;html=1;" vertex="1" parent="-e-vEmIo11bUtBHAeG6M-91">
          <mxGeometry width="80" height="40" as="geometry" />
        </mxCell>
        <mxCell id="-e-vEmIo11bUtBHAeG6M-78" value="tiempo" style="ellipse;whiteSpace=wrap;html=1;" vertex="1" parent="-e-vEmIo11bUtBHAeG6M-91">
          <mxGeometry y="50" width="80" height="40" as="geometry" />
        </mxCell>
        <mxCell id="-e-vEmIo11bUtBHAeG6M-79" value="complejidad" style="ellipse;whiteSpace=wrap;html=1;" vertex="1" parent="-e-vEmIo11bUtBHAeG6M-91">
          <mxGeometry y="100" width="80" height="40" as="geometry" />
        </mxCell>
        <mxCell id="-e-vEmIo11bUtBHAeG6M-80" value="" style="endArrow=none;html=1;rounded=0;exitX=0;exitY=0;exitDx=0;exitDy=0;entryX=1;entryY=0.5;entryDx=0;entryDy=0;" edge="1" parent="-e-vEmIo11bUtBHAeG6M-91" source="-e-vEmIo11bUtBHAeG6M-3" target="-e-vEmIo11bUtBHAeG6M-77">
          <mxGeometry width="50" height="50" relative="1" as="geometry">
            <mxPoint x="138" y="324" as="sourcePoint" />
            <mxPoint x="80" y="10" as="targetPoint" />
          </mxGeometry>
        </mxCell>
        <mxCell id="-e-vEmIo11bUtBHAeG6M-81" value="" style="endArrow=none;html=1;rounded=0;entryX=0;entryY=0.5;entryDx=0;entryDy=0;exitX=1;exitY=0.5;exitDx=0;exitDy=0;" edge="1" parent="-e-vEmIo11bUtBHAeG6M-91" source="-e-vEmIo11bUtBHAeG6M-78" target="-e-vEmIo11bUtBHAeG6M-3">
          <mxGeometry width="50" height="50" relative="1" as="geometry">
            <mxPoint x="110" y="65" as="sourcePoint" />
            <mxPoint x="90" y="24" as="targetPoint" />
          </mxGeometry>
        </mxCell>
        <mxCell id="-e-vEmIo11bUtBHAeG6M-82" value="" style="endArrow=none;html=1;rounded=0;exitX=0;exitY=1;exitDx=0;exitDy=0;entryX=1;entryY=0.5;entryDx=0;entryDy=0;" edge="1" parent="-e-vEmIo11bUtBHAeG6M-91" source="-e-vEmIo11bUtBHAeG6M-3" target="-e-vEmIo11bUtBHAeG6M-79">
          <mxGeometry width="50" height="50" relative="1" as="geometry">
            <mxPoint x="110" y="65" as="sourcePoint" />
            <mxPoint x="90" y="30" as="targetPoint" />
          </mxGeometry>
        </mxCell>
        <mxCell id="-e-vEmIo11bUtBHAeG6M-83" value="isa" style="triangle;whiteSpace=wrap;html=1;rotation=-90;" vertex="1" parent="-e-vEmIo11bUtBHAeG6M-91">
          <mxGeometry x="112.5" y="110" width="45" height="47.5" as="geometry" />
        </mxCell>
        <mxCell id="-e-vEmIo11bUtBHAeG6M-84" value="TACC" style="ellipse;whiteSpace=wrap;html=1;" vertex="1" parent="-e-vEmIo11bUtBHAeG6M-91">
          <mxGeometry x="10" y="180" width="80" height="40" as="geometry" />
        </mxCell>
        <mxCell id="-e-vEmIo11bUtBHAeG6M-85" value="vegetariana" style="ellipse;whiteSpace=wrap;html=1;" vertex="1" parent="-e-vEmIo11bUtBHAeG6M-91">
          <mxGeometry x="95" y="180" width="80" height="40" as="geometry" />
        </mxCell>
        <mxCell id="-e-vEmIo11bUtBHAeG6M-86" value="vegana" style="ellipse;whiteSpace=wrap;html=1;" vertex="1" parent="-e-vEmIo11bUtBHAeG6M-91">
          <mxGeometry x="180" y="180" width="80" height="40" as="geometry" />
        </mxCell>
        <mxCell id="-e-vEmIo11bUtBHAeG6M-87" value="" style="endArrow=none;html=1;rounded=0;entryX=0;entryY=0.25;entryDx=0;entryDy=0;exitX=0.5;exitY=0;exitDx=0;exitDy=0;" edge="1" parent="-e-vEmIo11bUtBHAeG6M-91" source="-e-vEmIo11bUtBHAeG6M-84" target="-e-vEmIo11bUtBHAeG6M-83">
          <mxGeometry width="50" height="50" relative="1" as="geometry">
            <mxPoint x="40" y="130" as="sourcePoint" />
            <mxPoint x="100" y="-37" as="targetPoint" />
          </mxGeometry>
        </mxCell>
        <mxCell id="-e-vEmIo11bUtBHAeG6M-88" value="" style="endArrow=none;html=1;rounded=0;entryX=0;entryY=0.5;entryDx=0;entryDy=0;exitX=0.5;exitY=0;exitDx=0;exitDy=0;" edge="1" parent="-e-vEmIo11bUtBHAeG6M-91" source="-e-vEmIo11bUtBHAeG6M-85" target="-e-vEmIo11bUtBHAeG6M-83">
          <mxGeometry width="50" height="50" relative="1" as="geometry">
            <mxPoint x="125" y="130" as="sourcePoint" />
            <mxPoint x="123" y="116" as="targetPoint" />
          </mxGeometry>
        </mxCell>
        <mxCell id="-e-vEmIo11bUtBHAeG6M-89" value="" style="endArrow=none;html=1;rounded=0;entryX=0;entryY=0.75;entryDx=0;entryDy=0;exitX=0.5;exitY=0;exitDx=0;exitDy=0;" edge="1" parent="-e-vEmIo11bUtBHAeG6M-91" source="-e-vEmIo11bUtBHAeG6M-86" target="-e-vEmIo11bUtBHAeG6M-83">
          <mxGeometry width="50" height="50" relative="1" as="geometry">
            <mxPoint x="210" y="130" as="sourcePoint" />
            <mxPoint x="135" y="116" as="targetPoint" />
          </mxGeometry>
        </mxCell>
        <mxCell id="-e-vEmIo11bUtBHAeG6M-90" value="" style="endArrow=none;html=1;rounded=0;exitX=0.5;exitY=1;exitDx=0;exitDy=0;entryX=1;entryY=0.5;entryDx=0;entryDy=0;" edge="1" parent="-e-vEmIo11bUtBHAeG6M-91" source="-e-vEmIo11bUtBHAeG6M-3" target="-e-vEmIo11bUtBHAeG6M-83">
          <mxGeometry width="50" height="50" relative="1" as="geometry">
            <mxPoint x="110" y="95" as="sourcePoint" />
            <mxPoint x="90" y="130" as="targetPoint" />
          </mxGeometry>
        </mxCell>
        <mxCell id="-e-vEmIo11bUtBHAeG6M-93" value="tiene" style="rhombus;whiteSpace=wrap;html=1;" vertex="1" parent="1">
          <mxGeometry x="870" y="880" width="80" height="50" as="geometry" />
        </mxCell>
        <mxCell id="-e-vEmIo11bUtBHAeG6M-94" value="contiene" style="rhombus;whiteSpace=wrap;html=1;" vertex="1" parent="1">
          <mxGeometry x="670" y="805" width="80" height="50" as="geometry" />
        </mxCell>
        <mxCell id="-e-vEmIo11bUtBHAeG6M-95" value="tiene" style="rhombus;whiteSpace=wrap;html=1;" vertex="1" parent="1">
          <mxGeometry x="500" y="690" width="80" height="50" as="geometry" />
        </mxCell>
        <mxCell id="-e-vEmIo11bUtBHAeG6M-96" value="carta" style="rhombus;whiteSpace=wrap;html=1;" vertex="1" parent="1">
          <mxGeometry x="360" y="280" width="80" height="50" as="geometry" />
        </mxCell>
        <mxCell id="-e-vEmIo11bUtBHAeG6M-97" value="menú sug." style="rhombus;whiteSpace=wrap;html=1;" vertex="1" parent="1">
          <mxGeometry x="500" y="330" width="80" height="50" as="geometry" />
        </mxCell>
        <mxCell id="-e-vEmIo11bUtBHAeG6M-98" value="precio" style="ellipse;whiteSpace=wrap;html=1;" vertex="1" parent="1">
          <mxGeometry x="440" y="390" width="80" height="40" as="geometry" />
        </mxCell>
        <mxCell id="-e-vEmIo11bUtBHAeG6M-99" value="día" style="ellipse;whiteSpace=wrap;html=1;" vertex="1" parent="1">
          <mxGeometry x="550" y="390" width="80" height="40" as="geometry" />
        </mxCell>
        <mxCell id="-e-vEmIo11bUtBHAeG6M-100" value="" style="endArrow=none;html=1;rounded=0;exitX=0.5;exitY=0;exitDx=0;exitDy=0;" edge="1" parent="1" source="-e-vEmIo11bUtBHAeG6M-5" target="-e-vEmIo11bUtBHAeG6M-93">
          <mxGeometry width="50" height="50" relative="1" as="geometry">
            <mxPoint x="920" y="1025" as="sourcePoint" />
            <mxPoint x="920" y="1005" as="targetPoint" />
          </mxGeometry>
        </mxCell>
        <mxCell id="-e-vEmIo11bUtBHAeG6M-101" value="" style="endArrow=none;html=1;rounded=0;exitX=0.5;exitY=0;exitDx=0;exitDy=0;entryX=0.5;entryY=1;entryDx=0;entryDy=0;" edge="1" parent="1" source="-e-vEmIo11bUtBHAeG6M-93" target="-e-vEmIo11bUtBHAeG6M-4">
          <mxGeometry width="50" height="50" relative="1" as="geometry">
            <mxPoint x="920" y="975" as="sourcePoint" />
            <mxPoint x="920" y="940" as="targetPoint" />
          </mxGeometry>
        </mxCell>
        <mxCell id="-e-vEmIo11bUtBHAeG6M-102" value="" style="endArrow=none;html=1;rounded=0;exitX=0;exitY=0.5;exitDx=0;exitDy=0;entryX=1;entryY=0.5;entryDx=0;entryDy=0;" edge="1" parent="1" source="-e-vEmIo11bUtBHAeG6M-4" target="-e-vEmIo11bUtBHAeG6M-94">
          <mxGeometry width="50" height="50" relative="1" as="geometry">
            <mxPoint x="920" y="890" as="sourcePoint" />
            <mxPoint x="915" y="855" as="targetPoint" />
          </mxGeometry>
        </mxCell>
        <mxCell id="-e-vEmIo11bUtBHAeG6M-103" value="" style="endArrow=none;html=1;rounded=0;exitX=0;exitY=0.5;exitDx=0;exitDy=0;" edge="1" parent="1" source="-e-vEmIo11bUtBHAeG6M-94" target="-e-vEmIo11bUtBHAeG6M-3">
          <mxGeometry width="50" height="50" relative="1" as="geometry">
            <mxPoint x="870" y="840" as="sourcePoint" />
            <mxPoint x="760" y="840" as="targetPoint" />
          </mxGeometry>
        </mxCell>
        <mxCell id="-e-vEmIo11bUtBHAeG6M-104" value="" style="endArrow=none;html=1;rounded=0;exitX=0.5;exitY=1;exitDx=0;exitDy=0;entryX=0.5;entryY=0;entryDx=0;entryDy=0;" edge="1" parent="1" source="-e-vEmIo11bUtBHAeG6M-95" target="-e-vEmIo11bUtBHAeG6M-3">
          <mxGeometry width="50" height="50" relative="1" as="geometry">
            <mxPoint x="680" y="840" as="sourcePoint" />
            <mxPoint x="590" y="840" as="targetPoint" />
          </mxGeometry>
        </mxCell>
        <mxCell id="-e-vEmIo11bUtBHAeG6M-105" value="" style="endArrow=none;html=1;rounded=0;exitX=1;exitY=0.25;exitDx=0;exitDy=0;entryX=0.5;entryY=0;entryDx=0;entryDy=0;" edge="1" parent="1" source="-e-vEmIo11bUtBHAeG6M-1" target="-e-vEmIo11bUtBHAeG6M-95">
          <mxGeometry width="50" height="50" relative="1" as="geometry">
            <mxPoint x="550" y="750" as="sourcePoint" />
            <mxPoint x="555" y="825" as="targetPoint" />
            <Array as="points">
              <mxPoint x="540" y="510" />
            </Array>
          </mxGeometry>
        </mxCell>
        <mxCell id="-e-vEmIo11bUtBHAeG6M-106" value="" style="endArrow=none;html=1;rounded=0;entryX=0.5;entryY=0;entryDx=0;entryDy=0;exitX=0;exitY=0.5;exitDx=0;exitDy=0;" edge="1" parent="1" source="-e-vEmIo11bUtBHAeG6M-96" target="-e-vEmIo11bUtBHAeG6M-1">
          <mxGeometry width="50" height="50" relative="1" as="geometry">
            <mxPoint x="305" y="310" as="sourcePoint" />
            <mxPoint x="307.5" y="480" as="targetPoint" />
            <Array as="points">
              <mxPoint x="305" y="305" />
            </Array>
          </mxGeometry>
        </mxCell>
        <mxCell id="-e-vEmIo11bUtBHAeG6M-107" value="" style="endArrow=none;html=1;rounded=0;" edge="1" parent="1">
          <mxGeometry width="50" height="50" relative="1" as="geometry">
            <mxPoint x="780" y="340" as="sourcePoint" />
            <mxPoint x="440" y="304.23" as="targetPoint" />
            <Array as="points">
              <mxPoint x="780" y="304" />
            </Array>
          </mxGeometry>
        </mxCell>
        <mxCell id="-e-vEmIo11bUtBHAeG6M-108" value="" style="endArrow=none;html=1;rounded=0;exitX=0;exitY=0.5;exitDx=0;exitDy=0;entryX=0.75;entryY=0;entryDx=0;entryDy=0;" edge="1" parent="1" source="-e-vEmIo11bUtBHAeG6M-97" target="-e-vEmIo11bUtBHAeG6M-1">
          <mxGeometry width="50" height="50" relative="1" as="geometry">
            <mxPoint x="480" y="374.23" as="sourcePoint" />
            <mxPoint x="390" y="374.23" as="targetPoint" />
            <Array as="points">
              <mxPoint x="323" y="355" />
            </Array>
          </mxGeometry>
        </mxCell>
        <mxCell id="-e-vEmIo11bUtBHAeG6M-109" value="" style="endArrow=none;html=1;rounded=0;exitX=0;exitY=0.5;exitDx=0;exitDy=0;entryX=1;entryY=0.5;entryDx=0;entryDy=0;" edge="1" parent="1" source="-e-vEmIo11bUtBHAeG6M-2" target="-e-vEmIo11bUtBHAeG6M-97">
          <mxGeometry width="50" height="50" relative="1" as="geometry">
            <mxPoint x="650" y="374.23" as="sourcePoint" />
            <mxPoint x="560" y="374.23" as="targetPoint" />
          </mxGeometry>
        </mxCell>
        <mxCell id="-e-vEmIo11bUtBHAeG6M-110" value="" style="endArrow=none;html=1;rounded=0;exitX=0;exitY=1;exitDx=0;exitDy=0;" edge="1" parent="1" source="-e-vEmIo11bUtBHAeG6M-97">
          <mxGeometry width="50" height="50" relative="1" as="geometry">
            <mxPoint x="570" y="388.46" as="sourcePoint" />
            <mxPoint x="480" y="388" as="targetPoint" />
          </mxGeometry>
        </mxCell>
        <mxCell id="-e-vEmIo11bUtBHAeG6M-111" value="" style="endArrow=none;html=1;rounded=0;exitX=1;exitY=1;exitDx=0;exitDy=0;entryX=0.5;entryY=0;entryDx=0;entryDy=0;" edge="1" parent="1" source="-e-vEmIo11bUtBHAeG6M-97" target="-e-vEmIo11bUtBHAeG6M-99">
          <mxGeometry width="50" height="50" relative="1" as="geometry">
            <mxPoint x="530" y="378" as="sourcePoint" />
            <mxPoint x="490" y="398" as="targetPoint" />
          </mxGeometry>
        </mxCell>
        <mxCell id="-e-vEmIo11bUtBHAeG6M-112" value="&lt;b&gt;&lt;font style=&quot;font-size: 24px;&quot;&gt;EJERCICIO RESTAURANTE&lt;/font&gt;&lt;/b&gt;" style="text;html=1;strokeColor=none;fillColor=none;align=center;verticalAlign=middle;whiteSpace=wrap;rounded=0;" vertex="1" parent="1">
          <mxGeometry x="70" y="130" width="420" height="30" as="geometry" />
        </mxCell>
      </root>
    </mxGraphModel>
  </diagram>
  <diagram id="M24fwUBxZSZxq6mn5ZFD" name="Página-4">
    <mxGraphModel dx="2157" dy="587" grid="0" gridSize="10" guides="1" tooltips="1" connect="1" arrows="1" fold="1" page="1" pageScale="1" pageWidth="850" pageHeight="1100" math="0" shadow="0">
      <root>
        <mxCell id="0" />
        <mxCell id="1" parent="0" />
        <mxCell id="YCX5yfacjBuOcMGFdmpS-1" value="Experimento" style="shape=table;startSize=30;container=1;collapsible=1;childLayout=tableLayout;fixedRows=1;rowLines=0;fontStyle=1;align=center;resizeLast=1;html=1;" vertex="1" parent="1">
          <mxGeometry x="-834" y="9" width="229" height="240" as="geometry">
            <mxRectangle x="-49" y="91" width="102" height="30" as="alternateBounds" />
          </mxGeometry>
        </mxCell>
        <mxCell id="YCX5yfacjBuOcMGFdmpS-2" value="" style="shape=tableRow;horizontal=0;startSize=0;swimlaneHead=0;swimlaneBody=0;fillColor=none;collapsible=0;dropTarget=0;points=[[0,0.5],[1,0.5]];portConstraint=eastwest;top=0;left=0;right=0;bottom=1;" vertex="1" parent="YCX5yfacjBuOcMGFdmpS-1">
          <mxGeometry y="30" width="229" height="30" as="geometry" />
        </mxCell>
        <mxCell id="YCX5yfacjBuOcMGFdmpS-3" value="PK" style="shape=partialRectangle;connectable=0;fillColor=none;top=0;left=0;bottom=0;right=0;fontStyle=1;overflow=hidden;whiteSpace=wrap;html=1;" vertex="1" parent="YCX5yfacjBuOcMGFdmpS-2">
          <mxGeometry width="30" height="30" as="geometry">
            <mxRectangle width="30" height="30" as="alternateBounds" />
          </mxGeometry>
        </mxCell>
        <mxCell id="YCX5yfacjBuOcMGFdmpS-4" value="id INT" style="shape=partialRectangle;connectable=0;fillColor=none;top=0;left=0;bottom=0;right=0;align=left;spacingLeft=6;fontStyle=5;overflow=hidden;whiteSpace=wrap;html=1;" vertex="1" parent="YCX5yfacjBuOcMGFdmpS-2">
          <mxGeometry x="30" width="199" height="30" as="geometry">
            <mxRectangle width="199" height="30" as="alternateBounds" />
          </mxGeometry>
        </mxCell>
        <mxCell id="YCX5yfacjBuOcMGFdmpS-5" value="" style="shape=tableRow;horizontal=0;startSize=0;swimlaneHead=0;swimlaneBody=0;fillColor=none;collapsible=0;dropTarget=0;points=[[0,0.5],[1,0.5]];portConstraint=eastwest;top=0;left=0;right=0;bottom=0;" vertex="1" parent="YCX5yfacjBuOcMGFdmpS-1">
          <mxGeometry y="60" width="229" height="30" as="geometry" />
        </mxCell>
        <mxCell id="YCX5yfacjBuOcMGFdmpS-6" value="FK" style="shape=partialRectangle;connectable=0;fillColor=none;top=0;left=0;bottom=0;right=0;editable=1;overflow=hidden;whiteSpace=wrap;html=1;" vertex="1" parent="YCX5yfacjBuOcMGFdmpS-5">
          <mxGeometry width="30" height="30" as="geometry">
            <mxRectangle width="30" height="30" as="alternateBounds" />
          </mxGeometry>
        </mxCell>
        <mxCell id="YCX5yfacjBuOcMGFdmpS-7" value="Titulo VARCHAR(300)" style="shape=partialRectangle;connectable=0;fillColor=none;top=0;left=0;bottom=0;right=0;align=left;spacingLeft=6;overflow=hidden;whiteSpace=wrap;html=1;" vertex="1" parent="YCX5yfacjBuOcMGFdmpS-5">
          <mxGeometry x="30" width="199" height="30" as="geometry">
            <mxRectangle width="199" height="30" as="alternateBounds" />
          </mxGeometry>
        </mxCell>
        <mxCell id="YCX5yfacjBuOcMGFdmpS-8" value="" style="shape=tableRow;horizontal=0;startSize=0;swimlaneHead=0;swimlaneBody=0;fillColor=none;collapsible=0;dropTarget=0;points=[[0,0.5],[1,0.5]];portConstraint=eastwest;top=0;left=0;right=0;bottom=0;" vertex="1" parent="YCX5yfacjBuOcMGFdmpS-1">
          <mxGeometry y="90" width="229" height="30" as="geometry" />
        </mxCell>
        <mxCell id="YCX5yfacjBuOcMGFdmpS-9" value="" style="shape=partialRectangle;connectable=0;fillColor=none;top=0;left=0;bottom=0;right=0;editable=1;overflow=hidden;whiteSpace=wrap;html=1;" vertex="1" parent="YCX5yfacjBuOcMGFdmpS-8">
          <mxGeometry width="30" height="30" as="geometry">
            <mxRectangle width="30" height="30" as="alternateBounds" />
          </mxGeometry>
        </mxCell>
        <mxCell id="YCX5yfacjBuOcMGFdmpS-10" value="Estado INT" style="shape=partialRectangle;connectable=0;fillColor=none;top=0;left=0;bottom=0;right=0;align=left;spacingLeft=6;overflow=hidden;whiteSpace=wrap;html=1;" vertex="1" parent="YCX5yfacjBuOcMGFdmpS-8">
          <mxGeometry x="30" width="199" height="30" as="geometry">
            <mxRectangle width="199" height="30" as="alternateBounds" />
          </mxGeometry>
        </mxCell>
        <mxCell id="YCX5yfacjBuOcMGFdmpS-11" value="" style="shape=tableRow;horizontal=0;startSize=0;swimlaneHead=0;swimlaneBody=0;fillColor=none;collapsible=0;dropTarget=0;points=[[0,0.5],[1,0.5]];portConstraint=eastwest;top=0;left=0;right=0;bottom=0;" vertex="1" parent="YCX5yfacjBuOcMGFdmpS-1">
          <mxGeometry y="120" width="229" height="30" as="geometry" />
        </mxCell>
        <mxCell id="YCX5yfacjBuOcMGFdmpS-12" value="" style="shape=partialRectangle;connectable=0;fillColor=none;top=0;left=0;bottom=0;right=0;editable=1;overflow=hidden;whiteSpace=wrap;html=1;" vertex="1" parent="YCX5yfacjBuOcMGFdmpS-11">
          <mxGeometry width="30" height="30" as="geometry">
            <mxRectangle width="30" height="30" as="alternateBounds" />
          </mxGeometry>
        </mxCell>
        <mxCell id="YCX5yfacjBuOcMGFdmpS-13" value="FechaInicio DATE" style="shape=partialRectangle;connectable=0;fillColor=none;top=0;left=0;bottom=0;right=0;align=left;spacingLeft=6;overflow=hidden;whiteSpace=wrap;html=1;" vertex="1" parent="YCX5yfacjBuOcMGFdmpS-11">
          <mxGeometry x="30" width="199" height="30" as="geometry">
            <mxRectangle width="199" height="30" as="alternateBounds" />
          </mxGeometry>
        </mxCell>
        <mxCell id="YCX5yfacjBuOcMGFdmpS-14" value="" style="shape=tableRow;horizontal=0;startSize=0;swimlaneHead=0;swimlaneBody=0;fillColor=none;collapsible=0;dropTarget=0;points=[[0,0.5],[1,0.5]];portConstraint=eastwest;top=0;left=0;right=0;bottom=0;" vertex="1" parent="YCX5yfacjBuOcMGFdmpS-1">
          <mxGeometry y="150" width="229" height="30" as="geometry" />
        </mxCell>
        <mxCell id="YCX5yfacjBuOcMGFdmpS-15" value="" style="shape=partialRectangle;connectable=0;fillColor=none;top=0;left=0;bottom=0;right=0;editable=1;overflow=hidden;whiteSpace=wrap;html=1;" vertex="1" parent="YCX5yfacjBuOcMGFdmpS-14">
          <mxGeometry width="30" height="30" as="geometry">
            <mxRectangle width="30" height="30" as="alternateBounds" />
          </mxGeometry>
        </mxCell>
        <mxCell id="YCX5yfacjBuOcMGFdmpS-16" value="FechaFin DATE" style="shape=partialRectangle;connectable=0;fillColor=none;top=0;left=0;bottom=0;right=0;align=left;spacingLeft=6;overflow=hidden;whiteSpace=wrap;html=1;" vertex="1" parent="YCX5yfacjBuOcMGFdmpS-14">
          <mxGeometry x="30" width="199" height="30" as="geometry">
            <mxRectangle width="199" height="30" as="alternateBounds" />
          </mxGeometry>
        </mxCell>
        <mxCell id="YCX5yfacjBuOcMGFdmpS-17" value="" style="shape=tableRow;horizontal=0;startSize=0;swimlaneHead=0;swimlaneBody=0;fillColor=none;collapsible=0;dropTarget=0;points=[[0,0.5],[1,0.5]];portConstraint=eastwest;top=0;left=0;right=0;bottom=0;" vertex="1" parent="YCX5yfacjBuOcMGFdmpS-1">
          <mxGeometry y="180" width="229" height="30" as="geometry" />
        </mxCell>
        <mxCell id="YCX5yfacjBuOcMGFdmpS-18" value="" style="shape=partialRectangle;connectable=0;fillColor=none;top=0;left=0;bottom=0;right=0;editable=1;overflow=hidden;whiteSpace=wrap;html=1;" vertex="1" parent="YCX5yfacjBuOcMGFdmpS-17">
          <mxGeometry width="30" height="30" as="geometry">
            <mxRectangle width="30" height="30" as="alternateBounds" />
          </mxGeometry>
        </mxCell>
        <mxCell id="YCX5yfacjBuOcMGFdmpS-19" value="Comentario VARCHAR(8000)" style="shape=partialRectangle;connectable=0;fillColor=none;top=0;left=0;bottom=0;right=0;align=left;spacingLeft=6;overflow=hidden;whiteSpace=wrap;html=1;" vertex="1" parent="YCX5yfacjBuOcMGFdmpS-17">
          <mxGeometry x="30" width="199" height="30" as="geometry">
            <mxRectangle width="199" height="30" as="alternateBounds" />
          </mxGeometry>
        </mxCell>
        <mxCell id="YCX5yfacjBuOcMGFdmpS-96" value="" style="shape=tableRow;horizontal=0;startSize=0;swimlaneHead=0;swimlaneBody=0;fillColor=none;collapsible=0;dropTarget=0;points=[[0,0.5],[1,0.5]];portConstraint=eastwest;top=0;left=0;right=0;bottom=1;" vertex="1" parent="YCX5yfacjBuOcMGFdmpS-1">
          <mxGeometry y="210" width="229" height="30" as="geometry" />
        </mxCell>
        <mxCell id="YCX5yfacjBuOcMGFdmpS-97" value="FK" style="shape=partialRectangle;connectable=0;fillColor=none;top=0;left=0;bottom=0;right=0;fontStyle=1;overflow=hidden;whiteSpace=wrap;html=1;" vertex="1" parent="YCX5yfacjBuOcMGFdmpS-96">
          <mxGeometry width="30" height="30" as="geometry">
            <mxRectangle width="30" height="30" as="alternateBounds" />
          </mxGeometry>
        </mxCell>
        <mxCell id="YCX5yfacjBuOcMGFdmpS-98" value="idProyecto INT" style="shape=partialRectangle;connectable=0;fillColor=none;top=0;left=0;bottom=0;right=0;align=left;spacingLeft=6;fontStyle=5;overflow=hidden;whiteSpace=wrap;html=1;" vertex="1" parent="YCX5yfacjBuOcMGFdmpS-96">
          <mxGeometry x="30" width="199" height="30" as="geometry">
            <mxRectangle width="199" height="30" as="alternateBounds" />
          </mxGeometry>
        </mxCell>
      </root>
    </mxGraphModel>
  </diagram>
</mxfile>
